<?xml version="1.0" standalone="no"?>
<!DOCTYPE svg PUBLIC "-//W3C//DTD SVG 20010904//EN"
 "http://www.w3.org/TR/2001/REC-SVG-20010904/DTD/svg10.dtd">
<svg version="1.0" xmlns="http://www.w3.org/2000/svg"
 width="526.000000pt" height="365.000000pt" viewBox="0 0 526.000000 365.000000"
 preserveAspectRatio="xMidYMid meet">

<g transform="translate(0.000000,365.000000) scale(0.100000,-0.100000)"
fill="#ffffff" stroke="none">
<path d="M1810 2170 l0 -1030 30 0 30 0 2 711 3 711 295 -382 295 -382 32 38
c49 60 158 202 553 724 l365 482 3 -951 2 -951 30 0 30 0 0 1030 c0 567 -3
1030 -7 1030 -10 0 -17 -9 -218 -275 -87 -115 -193 -255 -235 -310 -42 -55
-134 -176 -205 -270 -70 -93 -138 -181 -150 -194 l-23 -23 -193 253 c-382 502
-425 559 -523 688 -55 72 -104 131 -108 131 -4 0 -8 -463 -8 -1030z m259 618
c105 -139 261 -345 347 -458 86 -113 164 -217 175 -231 l19 -27 -68 -88 c-37
-49 -72 -88 -77 -86 -6 1 -141 172 -302 380 l-292 377 -1 193 c0 105 2 192 4
192 2 0 90 -114 195 -252z"/>
<path d="M1520 891 c-58 -13 -87 -28 -131 -68 -93 -84 -116 -215 -58 -332 61
-122 188 -176 324 -137 80 24 153 97 179 180 53 167 -58 341 -229 359 -27 3
-66 2 -85 -2z m145 -60 c83 -38 126 -103 132 -201 4 -57 1 -72 -24 -120 -41
-81 -93 -114 -187 -118 -55 -3 -82 0 -107 13 -149 76 -181 263 -64 380 24 24
58 48 77 54 54 15 130 12 173 -8z"/>
<path d="M3908 886 c-175 -47 -251 -266 -149 -424 82 -127 265 -161 376 -70
32 27 35 33 22 45 -12 12 -19 11 -51 -11 -69 -46 -178 -47 -246 -2 -119 79
-132 266 -25 365 74 68 172 78 263 25 39 -23 46 -24 59 -11 13 13 11 18 -21
42 -38 29 -113 55 -155 54 -14 0 -47 -6 -73 -13z"/>
<path d="M560 620 l0 -271 23 3 c22 3 22 4 27 221 l5 218 94 -221 c125 -292
112 -293 241 8 l95 223 3 -226 2 -226 23 3 22 3 3 268 2 268 -32 -3 c-33 -3
-33 -4 -133 -235 -55 -128 -102 -234 -105 -237 -3 -3 -51 102 -107 232 -99
232 -102 237 -132 240 l-31 3 0 -271z"/>
<path d="M2050 620 l0 -271 23 3 c21 3 22 8 25 106 l3 102 82 0 82 0 55 -105
c45 -86 59 -105 78 -105 12 0 22 3 22 7 0 4 -23 51 -51 106 -28 54 -49 100
-47 102 1 1 18 10 36 19 49 25 72 70 72 141 0 67 -21 112 -67 142 -22 15 -53
19 -170 21 l-143 4 0 -272z m290 207 c54 -27 62 -143 14 -188 -23 -22 -36 -24
-140 -27 l-114 -4 0 116 0 116 108 0 c66 0 117 -5 132 -13z"/>
<path d="M2615 877 c-3 -7 -4 -127 -3 -267 l3 -255 135 0 c110 0 141 3 167 18
49 26 68 62 68 126 0 64 -17 95 -70 127 l-35 21 24 11 c37 17 59 67 53 119 -6
53 -36 89 -86 103 -54 15 -250 13 -256 -3z m269 -58 c19 -15 26 -30 26 -55 0
-77 -44 -104 -170 -104 l-80 0 0 90 0 90 99 0 c84 0 102 -3 125 -21z m-13
-216 c61 -24 86 -92 55 -152 -21 -40 -56 -51 -166 -51 l-100 0 0 110 0 110 85
0 c55 0 99 -6 126 -17z"/>
<path d="M3180 620 l0 -270 173 2 c164 3 172 4 172 23 0 19 -8 20 -152 23
l-153 3 0 104 0 104 138 3 c134 3 137 4 140 26 3 22 3 22 -137 22 l-141 0 0
90 0 89 148 3 c144 3 147 3 150 26 l3 22 -170 0 -171 0 0 -270z"/>
<path d="M4352 623 l3 -268 23 -3 c21 -3 22 -1 22 90 l0 94 40 39 c22 21 41
37 43 34 2 -2 47 -61 101 -131 78 -103 102 -128 121 -128 14 0 25 3 25 6 0 3
-49 69 -110 147 -60 78 -109 145 -107 148 1 4 49 58 106 120 101 110 103 114
76 117 -24 3 -39 -8 -104 -80 -41 -46 -101 -110 -133 -143 l-58 -60 0 143 0
142 -25 0 -25 0 2 -267z"/>
</g>
</svg>
